<svg width="284" height="132" viewBox="0 0 284 132" fill="none" xmlns="http://www.w3.org/2000/svg">
<path d="M208 66.5C207.993 78.5373 204.645 90.3406 198.32 100.616C191.996 110.892 182.941 119.244 172.147 124.756C171.661 125.008 171.172 125.251 170.679 125.483L170.577 125.534L170.226 125.701C169.935 125.842 169.65 125.973 169.354 126.105C167.51 126.943 165.617 127.696 163.678 128.363C162.577 128.743 161.464 129.095 160.34 129.419L158.995 129.787C144.027 133.739 128.135 132.368 114.081 125.913C113.505 125.645 112.929 125.372 112.364 125.089L111.345 124.584C101.257 119.344 92.7007 111.618 86.4979 102.15C85.8457 101.163 85.224 100.153 84.6329 99.1187C84.1064 98.2195 83.5968 97.3085 83.1042 96.3857C78.3168 87.1395 75.8272 76.8931 75.8428 66.5C75.8428 65.2741 75.8768 64.055 75.9447 62.8426C76.9001 45.8104 84.5203 29.8197 97.1848 18.2713C109.849 6.723 126.559 0.528296 143.759 1.00474C160.96 1.48118 177.294 8.59117 189.288 20.8225C201.282 33.0539 207.99 49.4415 207.985 66.5H208Z" fill="url(#paint0_linear)"/>
<path d="M128.945 64.1712C128.945 64.1712 114.168 57.2251 112.883 47.6674C111.599 38.1096 112.501 28.9762 119.865 26.42C119.865 26.42 124.522 11.6994 141.032 17.615C157.542 23.5305 154.938 41.2921 163.963 43.4189C172.987 45.5457 189.839 36.589 193.054 47.5158C196.27 58.4426 185.696 57.7758 178.669 67.0506C171.642 76.3255 182.496 81.1953 180.509 87.5806C178.521 93.966 171.015 98.3558 171.015 98.3558L128.945 64.1712Z" fill="url(#paint1_linear)"/>
<path d="M108.71 85.1356L112.884 96.3857H113.337L119.865 67.0506C115.742 70.6323 108.71 85.1356 108.71 85.1356Z" fill="url(#paint2_linear)"/>
<path d="M101.383 100.654L98.7378 101.973C95.4562 103.923 90.5541 103.367 90.5541 103.367C93.2039 106.322 108.124 109.667 112.318 109.581L113.092 99.1136H103.798L101.383 100.654Z" fill="url(#paint3_linear)"/>
<path d="M170.679 125.468L170.577 125.519L170.226 125.685C169.935 125.827 169.65 125.958 169.354 126.09C167.509 126.928 165.617 127.681 163.678 128.348C162.577 128.728 161.464 129.08 160.34 129.403L158.995 129.772C144.027 133.724 128.135 132.353 114.081 125.898C113.505 125.63 112.929 125.357 112.364 125.074L111.345 124.569C111.487 120.235 111.706 115.047 112.027 109.576C112.231 106.156 112.481 102.625 112.777 99.1187C112.853 98.2043 112.934 97.295 113.016 96.3857C114.219 83.4635 116.145 71.4809 119.233 67.672L119.279 67.6215C119.671 67.0866 120.224 66.6886 120.858 66.4848C125.317 65.4341 128.461 65.0805 128.955 64.1712C129.45 63.2619 128.955 61.4736 128.955 61.4736L129.842 61.3523C131.131 61.1604 133.633 60.7562 136.003 60.15C136.018 60.1547 136.034 60.1547 136.049 60.15C138.143 59.6095 140.125 58.9124 141.093 58.0738L143.081 63.3124C143.081 63.3124 158.026 61.4382 163.861 67.0708C163.897 67.0971 163.929 67.1276 163.958 67.1618C164.019 67.2169 164.077 67.276 164.131 67.3386C164.478 67.7025 164.787 68.1002 165.053 68.5257C166.954 71.5567 168.299 83.7212 169.232 96.9161C169.446 99.9471 169.64 103.079 169.808 106.146C170.195 113.228 170.485 120.088 170.679 125.468Z" fill="url(#paint4_linear)"/>
<path opacity="0.15" d="M170.577 125.534L170.225 125.701C169.935 125.842 169.65 125.973 169.354 126.105C167.509 126.943 165.617 127.696 163.678 128.363C162.577 128.743 161.464 129.095 160.34 129.419C153.456 122.149 150.724 112.713 150.724 112.713L169.797 106.146L170.577 125.534Z" fill="black"/>
<path d="M163.856 67.0506C170.761 73.7694 172.264 87.8736 170.99 98.371C169.716 108.868 167.351 118.699 162.439 118.396C157.527 118.093 140.528 106.403 133.959 100.028L137.796 92.7283L151.677 98.4619V83.1806L163.856 67.0506Z" fill="url(#paint5_linear)"/>
<path d="M163.856 67.0506C170.761 73.7694 172.264 87.8736 170.99 98.371C169.716 108.868 167.351 118.699 162.439 118.396C157.527 118.093 140.528 106.403 133.959 100.028L137.796 92.7283L151.677 98.4619V83.1806L163.856 67.0506Z" fill="url(#paint6_linear)"/>
<g filter="url(#filter0_d)">
<path d="M128.145 96.3857H64.4539V99.1187H128.145V96.3857Z" fill="url(#paint7_linear)"/>
<path d="M100.435 62.8426H52L64.4539 96.3857H112.884L100.435 62.8426Z" fill="url(#paint8_linear)"/>
</g>
<path d="M78.9971 99.1187C78.9971 99.1187 87.354 103.266 92.6638 103.367C97.9735 103.468 103.803 99.1187 103.803 99.1187H78.9971Z" fill="url(#paint9_linear)"/>
<path d="M137.796 92.7283C137.796 92.7283 130.448 89.0507 127.284 88.6465C124.12 88.2424 114.295 96.3857 114.295 96.3857H128.155L133.975 100.028L137.796 92.7283Z" fill="url(#paint10_linear)"/>
<path d="M140.472 49.7891C140.508 52.5553 140.712 55.3168 141.083 58.0587C137.796 59.8924 133.949 60.8775 129.832 61.3574L129.592 58.0587L129.45 56.038V55.9723C128.656 55.9546 127.874 55.783 127.146 55.4671C122.173 53.3404 121.103 42.944 121.103 42.944C123.095 42.8632 125.689 39.3018 125.689 39.3018C127.141 41.5043 133.878 45.7578 137.786 44.6162C141.695 43.4745 141.389 40.7415 141.389 40.7415C142.096 41.037 142.707 41.5193 143.157 42.1358C143.606 42.7522 143.876 43.4792 143.937 44.2373C144.146 46.9046 140.472 49.7891 140.472 49.7891Z" fill="url(#paint11_linear)"/>
<path opacity="0.15" d="M137.134 52.7241C136.212 54.2699 132.038 56.7301 129.597 58.0688L129.455 56.0481C129.608 56.0481 129.755 55.9976 129.898 55.9673C131.891 55.6176 133.803 54.9143 135.544 53.891C135.565 53.8829 135.584 53.8709 135.6 53.8557C136.123 53.5491 136.613 53.1902 137.063 52.7847L137.134 52.7241Z" fill="black"/>
<path opacity="0.15" d="M145.95 96.1028L156.763 100.488L151.667 96.8454V83.2059C151.667 83.2059 150.072 95.0571 145.95 96.1028Z" fill="black"/>
<defs>
<filter id="filter0_d" x="37" y="47.8426" width="116.145" height="76.2761" filterUnits="userSpaceOnUse" color-interpolation-filters="sRGB">
<feFlood flood-opacity="0" result="BackgroundImageFix"/>
<feColorMatrix in="SourceAlpha" type="matrix" values="0 0 0 0 0 0 0 0 0 0 0 0 0 0 0 0 0 0 127 0"/>
<feOffset dx="5" dy="5"/>
<feGaussianBlur stdDeviation="10"/>
<feColorMatrix type="matrix" values="0 0 0 0 0 0 0 0 0 0 0 0 0 0 0 0 0 0 0.2 0"/>
<feBlend mode="normal" in2="BackgroundImageFix" result="effect1_dropShadow"/>
<feBlend mode="normal" in="SourceGraphic" in2="effect1_dropShadow" result="shape"/>
</filter>
<linearGradient id="paint0_linear" x1="142.193" y1="8.09364" x2="139.971" y2="137.225" gradientUnits="userSpaceOnUse">
<stop stop-color="white" stop-opacity="0"/>
<stop offset="1" stop-color="#64B5F6" stop-opacity="0.6"/>
</linearGradient>
<linearGradient id="paint1_linear" x1="112.399" y1="57.2807" x2="193.656" y2="57.2807" gradientUnits="userSpaceOnUse">
<stop stop-color="#EF9A9A"/>
<stop offset="1" stop-color="#D81B60"/>
</linearGradient>
<linearGradient id="paint2_linear" x1="113.684" y1="82.8826" x2="111.274" y2="110.514" gradientUnits="userSpaceOnUse">
<stop stop-color="#7E57C2"/>
<stop offset="1" stop-color="#4527A0"/>
</linearGradient>
<linearGradient id="paint3_linear" x1="6850.02" y1="2527.43" x2="6826.49" y2="3103.43" gradientUnits="userSpaceOnUse">
<stop stop-color="#7E57C2"/>
<stop offset="1" stop-color="#4527A0"/>
</linearGradient>
<linearGradient id="paint4_linear" x1="20378.2" y1="14858" x2="24505.7" y2="22492.9" gradientUnits="userSpaceOnUse">
<stop stop-color="#7E57C2"/>
<stop offset="1" stop-color="#4527A0"/>
</linearGradient>
<linearGradient id="paint5_linear" x1="13997.4" y1="9770.53" x2="17661.5" y2="15926.1" gradientUnits="userSpaceOnUse">
<stop stop-color="#7E57C2"/>
<stop offset="1" stop-color="#4527A0"/>
</linearGradient>
<linearGradient id="paint6_linear" x1="155.759" y1="72.7489" x2="150.038" y2="119.812" gradientUnits="userSpaceOnUse">
<stop offset="0.14" stop-color="#7E57C2" stop-opacity="0"/>
<stop offset="0.26" stop-color="#724DBB" stop-opacity="0.21"/>
<stop offset="0.48" stop-color="#5F3DAF" stop-opacity="0.55"/>
<stop offset="0.66" stop-color="#5131A7" stop-opacity="0.79"/>
<stop offset="0.81" stop-color="#482AA2" stop-opacity="0.94"/>
<stop offset="0.91" stop-color="#4527A0"/>
</linearGradient>
<linearGradient id="paint7_linear" x1="64.4539" y1="97.7497" x2="128.145" y2="97.7497" gradientUnits="userSpaceOnUse">
<stop stop-color="#D2D4D5"/>
<stop offset="1" stop-color="#AAACAE"/>
</linearGradient>
<linearGradient id="paint8_linear" x1="574.989" y1="4198.71" x2="4179.02" y2="8332.05" gradientUnits="userSpaceOnUse">
<stop stop-color="#D2D4D5"/>
<stop offset="1" stop-color="#AAACAE"/>
</linearGradient>
<linearGradient id="paint9_linear" x1="80.5767" y1="94.557" x2="100.884" y2="103.338" gradientUnits="userSpaceOnUse">
<stop stop-color="#FFF8E1"/>
<stop offset="1" stop-color="#FFCC80"/>
</linearGradient>
<linearGradient id="paint10_linear" x1="7912.06" y1="2941.73" x2="8430.29" y2="3509.97" gradientUnits="userSpaceOnUse">
<stop stop-color="#FFF8E1"/>
<stop offset="1" stop-color="#FFCC80"/>
</linearGradient>
<linearGradient id="paint11_linear" x1="8081.47" y1="3227.22" x2="8536.41" y2="4088.69" gradientUnits="userSpaceOnUse">
<stop stop-color="#FFF8E1"/>
<stop offset="1" stop-color="#FFCC80"/>
</linearGradient>
</defs>
</svg>
