<svg width="284" height="132" viewBox="0 0 284 132" fill="none" xmlns="http://www.w3.org/2000/svg">
<path d="M207.995 66C207.988 78.1292 204.67 90.0225 198.403 100.377C192.137 110.731 183.164 119.146 172.467 124.701C171.841 125.031 171.205 125.347 170.564 125.652C170.276 125.795 169.993 125.927 169.7 126.06C167.873 126.905 165.998 127.663 164.075 128.335C162.561 128.869 161.005 129.353 159.435 129.77C144.603 133.752 128.856 132.371 114.93 125.866C114.359 125.596 113.789 125.322 113.228 125.037C102.801 119.779 93.956 111.809 87.6064 101.952C81.2569 92.0955 77.6334 80.7081 77.1102 68.967C76.587 57.2258 79.1831 45.5568 84.6303 35.1656C90.0775 24.7743 98.1783 16.0377 108.096 9.85855C118.013 3.67936 129.387 0.28168 141.043 0.0165558C152.698 -0.248568 164.213 2.62848 174.396 8.35045C184.58 14.0724 193.063 22.4318 198.97 32.5647C204.877 42.6977 207.992 54.2368 207.995 65.9898V66Z" fill="url(#paint0_linear)"/>
<path d="M116.854 106.742L109.623 95.3554C109.623 95.3554 129.654 72.0116 131.658 70.6321C131.658 70.6321 121.555 87.7201 116.854 106.742Z" fill="url(#paint1_linear)"/>
<path d="M109.623 95.3554L95.9895 107.572L70.9092 95.3554L51.7216 96.4142C51.7216 96.4142 63.6735 100.486 67.0363 100.318L70.4043 100.15C70.4043 100.15 91.0007 120.17 95.7371 121.697C100.473 123.224 116.031 111.252 116.031 111.252L116.934 106.778L109.623 95.3554Z" fill="url(#paint2_linear)"/>
<path d="M147.241 67.8681C145.346 68.7928 143.309 69.385 141.217 69.6191C138.798 69.9856 135.122 68.6316 135.122 68.6316C137.899 66.4276 137.253 61.2304 137.253 61.2304L137.314 61.1999C140.278 60.9708 142.757 59.2758 144.489 57.6367C143.863 62.0856 147.241 67.8681 147.241 67.8681Z" fill="url(#paint3_linear)"/>
<path d="M147.241 51.3147V54.3688C146.451 55.5553 145.53 56.6467 144.494 57.6215V57.6215C142.762 59.2657 140.283 60.9607 137.319 61.1847C135.972 61.2884 134.62 61.0884 133.36 60.5993C125.281 57.5452 130.962 41.3836 130.962 41.3836C133.527 34.8071 145.14 37.9885 145.14 37.9885C146.695 39.8566 146.993 45.0741 146.933 45.5831C146.674 46.2982 146.335 46.9813 145.923 47.6192C145.923 47.6192 148.129 45.522 148.887 46.9167C149.644 48.3115 147.241 51.3147 147.241 51.3147Z" fill="url(#paint4_linear)"/>
<path d="M147.241 54.379V51.3249C147.241 51.3249 149.639 48.3471 148.882 46.9422C148.124 45.5373 145.918 47.6446 145.918 47.6446C146.33 47.0068 146.669 46.3237 146.928 45.6085C146.988 45.0995 146.736 40.1772 145.135 38.0139C145.135 38.0139 133.522 34.8325 130.957 41.4091C130.957 41.4091 127.634 40.559 124.771 36.5734C120.09 30.0528 125.68 29.2536 131.219 30.5109C137.94 32.038 144.676 27.0292 152.376 32.1194C160.076 37.2096 153.174 48.7797 147.241 54.379Z" fill="#262F72"/>
<g filter="url(#filter0_d)">
<path d="M94.3838 25.9602H28.8681C27.2841 25.9602 26 27.2547 26 28.8515V89.751C26 91.3478 27.2841 92.6423 28.8681 92.6423H94.3838C95.9678 92.6423 97.2519 91.3478 97.2519 89.751V28.8515C97.2519 27.2547 95.9678 25.9602 94.3838 25.9602Z" fill="white"/>
</g>
<path d="M36.9117 38.0444C36.7299 38.2519 36.4962 38.4065 36.2351 38.4924C35.9235 38.6014 35.5954 38.6548 35.2656 38.6502C34.9234 38.658 34.5852 38.5737 34.2861 38.4058C34.0027 38.2399 33.7756 37.9915 33.6347 37.6932C33.4742 37.3495 33.3931 36.9736 33.3974 36.5937V36.2985C33.3882 35.9121 33.4623 35.5283 33.6145 35.1735C33.7453 34.8726 33.9637 34.6188 34.2406 34.4456C34.5757 34.2627 34.9545 34.1768 35.335 34.1975C35.7156 34.2181 36.083 34.3445 36.3967 34.5627C36.6979 34.8403 36.8792 35.2259 36.9016 35.6367H36.0382C36.0186 35.4292 35.9254 35.2358 35.7756 35.0921C35.6169 34.9694 35.4199 34.9081 35.2202 34.919C35.0856 34.9114 34.9513 34.9388 34.8302 34.9985C34.7091 35.0582 34.6051 35.1483 34.5284 35.2601C34.3512 35.5683 34.2687 35.9226 34.2911 36.2781V36.553C34.2692 36.9111 34.3593 37.2672 34.5486 37.571C34.636 37.6871 34.7503 37.7799 34.8814 37.8411C35.0126 37.9024 35.1567 37.9302 35.301 37.9223C35.5566 37.9448 35.8112 37.8683 36.0129 37.7085V36.9602H35.2051V36.3036H36.9016L36.9117 38.0444Z" fill="#64B5F6"/>
<path d="M88.8295 34.1911H42.4054C41.8393 34.1911 41.3804 34.6537 41.3804 35.2244V38.981C41.3804 39.5517 41.8393 40.0143 42.4054 40.0143H88.8295C89.3956 40.0143 89.8545 39.5517 89.8545 38.981V35.2244C89.8545 34.6537 89.3956 34.1911 88.8295 34.1911Z" fill="#E7EEF2"/>
<path d="M89.8545 43.3026H41.3804V44.3207H89.8545V43.3026Z" fill="#BBDEFB"/>
<path d="M89.8545 45.5933H41.3804V46.6113H89.8545V45.5933Z" fill="#E7E8E9"/>
<path d="M89.8545 47.8839H41.3804V48.9019H89.8545V47.8839Z" fill="#E7E8E9"/>
<path d="M89.8545 50.1744H41.3804V51.1925H89.8545V50.1744Z" fill="#E7E8E9"/>
<path d="M89.8545 54.4604H41.3804V55.4785H89.8545V54.4604Z" fill="#BBDEFB"/>
<path d="M89.8545 56.751H41.3804V57.7691H89.8545V56.751Z" fill="#E7E8E9"/>
<path d="M89.8545 59.0416H41.3804V60.0597H89.8545V59.0416Z" fill="#E7E8E9"/>
<path d="M89.8545 61.3323H41.3804V62.3503H89.8545V61.3323Z" fill="#E7E8E9"/>
<path d="M89.8545 65.491H41.3804V66.509H89.8545V65.491Z" fill="#BBDEFB"/>
<path d="M89.8545 67.7816H41.3804V68.7996H89.8545V67.7816Z" fill="#E7E8E9"/>
<path d="M89.8545 70.0722H41.3804V71.0903H89.8545V70.0722Z" fill="#E7E8E9"/>
<path d="M89.8545 72.3628H41.3804V73.3809H89.8545V72.3628Z" fill="#E7E8E9"/>
<path d="M89.8545 76.5215H41.3804V77.5396H89.8545V76.5215Z" fill="#BBDEFB"/>
<path d="M89.8545 78.8121H41.3804V79.8302H89.8545V78.8121Z" fill="#E7E8E9"/>
<path d="M89.8545 81.1027H41.3804V82.1208H89.8545V81.1027Z" fill="#E7E8E9"/>
<path d="M89.8545 83.3933H41.3804V84.4114H89.8545V83.3933Z" fill="#E7E8E9"/>
<path d="M164.707 92.459C168.16 102.823 170.72 114.82 172.468 124.701C171.841 125.031 171.205 125.347 170.564 125.652C170.276 125.795 169.993 125.927 169.7 126.06C167.873 126.905 165.998 127.663 164.075 128.335C162.561 128.869 161.005 129.353 159.435 129.77C144.603 133.752 128.856 132.371 114.93 125.866C114.359 125.596 113.789 125.322 113.228 125.037C114.238 119.809 115.44 113.665 116.849 106.747C117.36 104.24 117.897 101.63 118.459 98.9185C121.353 85.0273 125.503 77.4632 128.932 73.3656L128.967 73.3248C129.618 72.5458 130.324 71.8144 131.078 71.136C131.099 71.1114 131.122 71.0892 131.148 71.0698C131.32 70.9171 131.492 70.7746 131.653 70.6372C133.719 68.9421 135.122 68.6316 135.122 68.6316L135.248 68.6774H135.319C136.416 69.1135 137.566 69.3994 138.738 69.5275H138.935H138.965C139.713 69.5997 140.466 69.6117 141.217 69.5631H141.262C143.346 69.4292 145.376 68.8386 147.21 67.8325V67.8325C149.361 68.5496 151.387 69.6025 153.214 70.9528C158.435 74.8163 168.953 88.9824 168.953 88.9824L164.707 92.459Z" fill="url(#paint5_linear)"/>
<path d="M183.94 111.802C183.909 113.217 182.632 116.088 180.764 119.57C178.128 121.487 175.353 123.202 172.462 124.701C171.836 125.031 171.2 125.347 170.559 125.652C170.271 125.795 169.988 125.927 169.695 126.06C167.867 126.905 165.993 127.663 164.07 128.335L168.948 112.662L156.325 99.3003L164.702 92.4591L168.948 88.9926C168.948 88.9926 184.071 106.33 183.94 111.802Z" fill="url(#paint6_linear)"/>
<defs>
<filter id="filter0_d" x="16" y="19.9602" width="91.2519" height="86.6821" filterUnits="userSpaceOnUse" color-interpolation-filters="sRGB">
<feFlood flood-opacity="0" result="BackgroundImageFix"/>
<feColorMatrix in="SourceAlpha" type="matrix" values="0 0 0 0 0 0 0 0 0 0 0 0 0 0 0 0 0 0 127 0"/>
<feOffset dy="4"/>
<feGaussianBlur stdDeviation="5"/>
<feColorMatrix type="matrix" values="0 0 0 0 0 0 0 0 0 0 0 0 0 0 0 0 0 0 0.15 0"/>
<feBlend mode="normal" in2="BackgroundImageFix" result="effect1_dropShadow"/>
<feBlend mode="normal" in="SourceGraphic" in2="effect1_dropShadow" result="shape"/>
</filter>
<linearGradient id="paint0_linear" x1="142.788" y1="7.16742" x2="140.512" y2="137.263" gradientUnits="userSpaceOnUse">
<stop stop-color="white" stop-opacity="0"/>
<stop offset="1" stop-color="#64B5F6" stop-opacity="0.6"/>
</linearGradient>
<linearGradient id="paint1_linear" x1="122.231" y1="68.2092" x2="118.383" y2="103.452" gradientUnits="userSpaceOnUse">
<stop stop-color="#42A5F5"/>
<stop offset="1" stop-color="#1565C0"/>
</linearGradient>
<linearGradient id="paint2_linear" x1="78.5338" y1="105.322" x2="120.455" y2="110.833" gradientUnits="userSpaceOnUse">
<stop stop-color="#FFE082"/>
<stop offset="1" stop-color="#FFA726"/>
</linearGradient>
<linearGradient id="paint3_linear" x1="9433.78" y1="2544.52" x2="9436.77" y2="2315.66" gradientUnits="userSpaceOnUse">
<stop stop-color="#FFE082"/>
<stop offset="1" stop-color="#FFA726"/>
</linearGradient>
<linearGradient id="paint4_linear" x1="15003.3" y1="4075.82" x2="15796.5" y2="4075.82" gradientUnits="userSpaceOnUse">
<stop stop-color="#FFE082"/>
<stop offset="1" stop-color="#FFA726"/>
</linearGradient>
<linearGradient id="paint5_linear" x1="42964.6" y1="15103.6" x2="48863.7" y2="20773.6" gradientUnits="userSpaceOnUse">
<stop stop-color="#42A5F5"/>
<stop offset="1" stop-color="#1565C0"/>
</linearGradient>
<linearGradient id="paint6_linear" x1="23025.9" y1="12265.9" x2="22622.5" y2="9747.27" gradientUnits="userSpaceOnUse">
<stop stop-color="#FFE082"/>
<stop offset="1" stop-color="#FFA726"/>
</linearGradient>
</defs>
</svg>
