<svg width="284" height="197" viewBox="0 0 284 197" fill="none" xmlns="http://www.w3.org/2000/svg">
<g clip-path="url(#clip0)">
<path d="M207.522 125.763C207.53 134.946 205.606 144.029 201.874 152.431C198.141 160.833 192.682 168.367 185.847 174.552C183.946 176.274 181.947 177.886 179.86 179.382C177.182 181.301 174.363 183.017 171.427 184.517H171.396C170.77 184.844 170.134 185.154 169.493 185.455C169.2 185.598 168.913 185.73 168.615 185.863C166.758 186.708 164.853 187.467 162.9 188.14C161.361 188.649 159.781 189.159 158.186 189.577C148.983 192.008 139.363 192.458 129.97 190.896C128.857 190.713 127.759 190.504 126.667 190.265L125.743 190.056C122.956 189.409 120.214 188.582 117.535 187.58C115.979 186.999 114.454 186.362 112.959 185.669C112.379 185.399 111.8 185.124 111.23 184.838C110.84 184.645 110.456 184.446 110.071 184.247C99.6325 178.803 90.8387 170.702 84.5899 160.772C78.3411 150.843 74.8617 139.442 74.5082 127.738C74.1546 116.034 76.9395 104.447 82.5777 94.1634C88.2159 83.8798 96.5048 75.2691 106.596 69.2132C116.686 63.1572 128.217 59.8736 140.005 59.6985C151.794 59.5235 163.418 62.4633 173.687 68.2169C183.955 73.9705 192.5 82.3311 198.445 92.4427C204.39 102.554 207.523 114.054 207.522 125.763Z" fill="url(#paint0_linear)"/>
<path d="M158.432 130.542C162.669 134.873 175.012 151.727 175.012 151.727L167.43 162.767L160.612 140.834L158.432 130.542Z" fill="url(#paint1_linear)"/>
<path d="M171.396 184.553C170.77 184.879 170.134 185.19 169.492 185.491C169.2 185.633 168.913 185.766 168.615 185.898C166.758 186.744 164.853 187.503 162.9 188.176C161.361 188.685 159.781 189.195 158.186 189.612C148.983 192.044 139.363 192.493 129.97 190.932C128.857 190.749 127.759 190.54 126.667 190.3C122.665 193.041 118.971 195.359 116.524 196.414L116.724 194.717L117.555 187.62L119.479 171.108L127.103 163.786L109.963 165.106C109.963 165.106 111.764 140.294 118.792 135.188C125.82 130.083 133.192 125.508 133.192 125.508C134.071 126.084 135.04 126.513 136.06 126.777V126.777C138.497 127.446 141.031 127.703 143.555 127.536C146.561 127.398 149.567 124.622 149.711 124.479C149.711 124.479 154.431 125.411 158.432 130.562C160.428 133.214 161.861 136.24 162.644 139.458C163.629 143.223 165.378 152.017 167.369 162.64C168.672 169.477 170.041 177.058 171.396 184.553Z" fill="url(#paint2_linear)"/>
<path d="M175.012 151.747L182.328 160.261L208.055 134.898L209.03 129.706L214.16 125.279L211.877 132.03V140.823C211.877 140.823 192.034 172.769 186.565 174.414C180.168 176.345 167.44 162.757 167.44 162.757L175.012 151.747Z" fill="url(#paint3_linear)"/>
<path d="M148.305 163.389L154.272 177.655L161.982 174.363L156.329 160.403L148.305 163.389Z" fill="#7E57C2"/>
<path d="M156.616 172.606C155.657 173.39 154.225 173.207 152.45 173.298C150.066 173.361 147.778 174.251 145.986 175.815C143.601 177.807 136.932 183.02 130.263 187.778C129.052 188.639 127.841 189.49 126.672 190.326C122.67 193.067 118.977 195.385 116.529 196.439C115.886 196.757 115.191 196.958 114.477 197.036C111.051 197.122 110.317 189.989 110.107 184.298C110.04 182.408 110.025 180.681 109.989 179.433C109.845 174.44 109.989 165.167 109.989 165.167L127.128 163.842L125.312 175.632L124.994 177.716V177.731L130.124 175.846L130.283 175.79L148.495 169.07L149.752 166.915L150.552 168.952H150.629L158.427 167.934C158.427 167.934 158.56 171.021 156.616 172.606Z" fill="url(#paint4_linear)"/>
<path d="M152.681 98.2504C152.235 97.0378 151.85 96.2124 151.737 95.9678V95.9067C151.737 95.9067 151.342 96.8747 148.367 96.6404C145.391 96.406 144.406 94.9387 144.406 94.9387C144.406 94.9387 145.34 98.1179 141.795 99.4782C138.384 100.793 137.04 99.9419 136.947 99.8807C137.127 100.074 139.794 102.907 138.025 105.154C136.193 107.482 132.074 107.024 132.074 107.024V107.054C132.592 108.22 133.173 109.358 133.813 110.463C134.151 111.044 134.485 111.579 134.839 112.078V112.114C135.747 113.581 136.974 114.829 138.43 115.767C137.79 119.495 135.953 122.918 133.192 125.523V125.523C134.121 126.005 135.078 126.428 136.06 126.792C137.973 127.51 140.543 128.224 142.837 128.025C145.494 127.743 147.949 126.486 149.721 124.499L148.546 120.021L147.49 115.986C157.042 113.566 154.415 103.04 152.681 98.2504ZM146.956 116.133L147.125 116.093L147.397 116.016C147.002 116.186 146.584 116.3 146.156 116.353C146.376 116.297 146.602 116.235 146.838 116.164L146.956 116.133Z" fill="url(#paint5_linear)"/>
<path d="M158.432 95.7742C154.492 99.3712 152.789 98.3573 152.681 98.2605V98.2503C152.235 97.0378 151.85 96.2124 151.742 95.9678L151.717 95.9067C151.717 95.9067 151.317 96.8747 148.341 96.6404C145.366 96.406 144.386 94.9387 144.386 94.9387C144.386 94.9387 145.319 98.1179 141.775 99.4782C138.358 100.793 137.014 99.9419 136.927 99.8807C137.106 100.069 139.774 102.902 138.004 105.149C136.173 107.477 132.053 107.024 132.053 107.024V107.049C132.571 108.217 133.152 109.356 133.792 110.463C134.134 111.04 134.476 111.579 134.818 112.078V112.114C134.818 112.114 133.413 114.86 130.904 114.804C128.395 114.748 128.339 112.256 128.339 112.256C128.339 112.256 126.564 115.435 121.08 112.373C115.596 109.311 119.254 104.874 119.254 104.874C119.254 104.874 115.365 101.919 115.365 97.4912C115.365 93.0637 121.418 89.696 121.418 89.696C121.418 89.696 119.254 84.5552 122.906 81.7224C126.559 78.8897 132.048 80.8104 132.048 80.8104C132.048 80.8104 131.94 74.2329 137.532 74.3399C143.124 74.4469 144.391 77.8452 144.391 77.8452C144.391 77.8452 149.418 73.9833 154.395 77.621C159.371 81.2588 157.324 87.602 157.324 87.602C157.324 87.602 162.541 92.0295 158.432 95.7742Z" fill="url(#paint6_linear)"/>
<path opacity="0.15" d="M148.587 120.006C146.202 119.257 141.959 116.398 141.959 116.398C143.634 116.574 145.325 116.485 146.971 116.134L147.141 116.093L147.469 115.996H147.515L148.587 120.006Z" fill="black"/>
<path opacity="0.15" d="M129.416 148.547L127.103 163.832L125.287 175.622L121.059 179.112L130.258 175.795C130.258 175.795 127.872 169.029 129.416 148.547Z" fill="black"/>
<path opacity="0.15" d="M126.656 190.3C127.749 190.54 128.847 190.748 129.96 190.932C130.017 189.887 130.119 188.833 130.263 187.778L126.656 190.3Z" fill="black"/>
<g filter="url(#filter0_d)">
<path d="M104.423 0H76.992C73.2067 0 70.1382 3.04751 70.1382 6.80681V34.0493C70.1382 37.8086 73.2067 40.8561 76.992 40.8561H104.423C108.208 40.8561 111.276 37.8086 111.276 34.0493V6.80681C111.276 3.04751 108.208 0 104.423 0Z" fill="#56CCF2"/>
</g>
<path d="M101 19H96.83L100.07 15.76L98.66 14.34L94 19H92V17L96.66 12.34L95.24 10.93L92 14.17V10H90V14.17L86.76 10.93L85.34 12.34L90 17V19H88L83.34 14.34L81.93 15.76L85.17 19H81V21H85.17L81.93 24.24L83.34 25.66L88 21H90V23L85.34 27.66L86.76 29.07L90 25.83V30H92V25.83L95.24 29.07L96.66 27.66L92 23V21H94L98.66 25.66L100.07 24.24L96.83 21H101V19Z" fill="white"/>
<g filter="url(#filter1_d)">
<path d="M246.284 103H218.854C215.069 103 212 106.048 212 109.807V137.049C212 140.809 215.069 143.856 218.854 143.856H246.284C250.07 143.856 253.138 140.809 253.138 137.049V109.807C253.138 106.048 250.07 103 246.284 103Z" fill="#F2C94C"/>
</g>
<path d="M242 120C242 115 238 111 233 111C228 111 224 115 224 120C224 123.1 225.6 125.9 228 127.5V130C228 131.3 228.8 132.4 230 132.8V133C230 134.7 231.3 136 233 136C234.7 136 236 134.7 236 133V132.8C237.2 132.4 238 131.3 238 130V127.5C240.4 125.9 242 123.1 242 120ZM226 120C226 116.1 229.1 113 233 113C236.9 113 240 116.1 240 120C240 123.5 237.4 126.4 234 126.9V124.4L235.7 122.7C236.1 122.3 236.1 121.7 235.7 121.3C235.3 120.9 234.7 120.9 234.3 121.3L233 122.6L231.7 121.3C231.3 120.9 230.7 120.9 230.3 121.3C229.9 121.7 229.9 122.3 230.3 122.7L232 124.4V126.9C228.6 126.4 226 123.5 226 120ZM233 134C232.4 134 232 133.6 232 133H234C234 133.6 233.6 134 233 134ZM236 130C236 130.6 235.6 131 235 131H231C230.4 131 230 130.6 230 130V128.5C230.9 128.8 231.9 129 233 129C234.1 129 235.1 128.8 236 128.5V130Z" fill="white"/>
<g filter="url(#filter2_d)">
<path d="M63.2844 103H35.8538C32.0685 103 29 106.048 29 109.807V137.049C29 140.809 32.0685 143.856 35.8538 143.856H63.2844C67.0696 143.856 70.1381 140.809 70.1381 137.049V109.807C70.1381 106.048 67.0696 103 63.2844 103Z" fill="#F58A8A"/>
</g>
<path d="M56 120H55V118C55 115.24 52.76 113 50 113C47.24 113 45 115.24 45 118V120H44C42.9 120 42 120.9 42 122V132C42 133.1 42.9 134 44 134H56C57.1 134 58 133.1 58 132V122C58 120.9 57.1 120 56 120ZM50 129C48.9 129 48 128.1 48 127C48 125.9 48.9 125 50 125C51.1 125 52 125.9 52 127C52 128.1 51.1 129 50 129ZM53.1 120H46.9V118C46.9 116.29 48.29 114.9 50 114.9C51.71 114.9 53.1 116.29 53.1 118V120Z" fill="white"/>
<g filter="url(#filter3_d)">
<path d="M201.284 0H173.854C170.069 0 167 3.04751 167 6.80681V34.0493C167 37.8086 170.069 40.8561 173.854 40.8561H201.284C205.07 40.8561 208.138 37.8086 208.138 34.0493V6.80681C208.138 3.04751 205.07 0 201.284 0Z" fill="#6FCF97"/>
</g>
<path d="M193.311 14.8964H176.98V25.1033H193.311V14.8964Z" fill="white"/>
<path d="M197.713 16.9276L194.108 18.4426V21.6002L197.713 23.1153H199.02V16.9276H197.713Z" fill="white"/>
</g>
<defs>
<filter id="filter0_d" x="60.1382" y="-10" width="71.1381" height="70.8561" filterUnits="userSpaceOnUse" color-interpolation-filters="sRGB">
<feFlood flood-opacity="0" result="BackgroundImageFix"/>
<feColorMatrix in="SourceAlpha" type="matrix" values="0 0 0 0 0 0 0 0 0 0 0 0 0 0 0 0 0 0 127 0"/>
<feOffset dx="5" dy="5"/>
<feGaussianBlur stdDeviation="7.5"/>
<feColorMatrix type="matrix" values="0 0 0 0 0 0 0 0 0 0 0 0 0 0 0 0 0 0 0.15 0"/>
<feBlend mode="normal" in2="BackgroundImageFix" result="effect1_dropShadow"/>
<feBlend mode="normal" in="SourceGraphic" in2="effect1_dropShadow" result="shape"/>
</filter>
<filter id="filter1_d" x="202" y="93" width="71.1381" height="70.8561" filterUnits="userSpaceOnUse" color-interpolation-filters="sRGB">
<feFlood flood-opacity="0" result="BackgroundImageFix"/>
<feColorMatrix in="SourceAlpha" type="matrix" values="0 0 0 0 0 0 0 0 0 0 0 0 0 0 0 0 0 0 127 0"/>
<feOffset dx="5" dy="5"/>
<feGaussianBlur stdDeviation="7.5"/>
<feColorMatrix type="matrix" values="0 0 0 0 0 0 0 0 0 0 0 0 0 0 0 0 0 0 0.15 0"/>
<feBlend mode="normal" in2="BackgroundImageFix" result="effect1_dropShadow"/>
<feBlend mode="normal" in="SourceGraphic" in2="effect1_dropShadow" result="shape"/>
</filter>
<filter id="filter2_d" x="19" y="93" width="71.1381" height="70.8561" filterUnits="userSpaceOnUse" color-interpolation-filters="sRGB">
<feFlood flood-opacity="0" result="BackgroundImageFix"/>
<feColorMatrix in="SourceAlpha" type="matrix" values="0 0 0 0 0 0 0 0 0 0 0 0 0 0 0 0 0 0 127 0"/>
<feOffset dx="5" dy="5"/>
<feGaussianBlur stdDeviation="7.5"/>
<feColorMatrix type="matrix" values="0 0 0 0 0 0 0 0 0 0 0 0 0 0 0 0 0 0 0.15 0"/>
<feBlend mode="normal" in2="BackgroundImageFix" result="effect1_dropShadow"/>
<feBlend mode="normal" in="SourceGraphic" in2="effect1_dropShadow" result="shape"/>
</filter>
<filter id="filter3_d" x="157" y="-10" width="71.1381" height="70.8561" filterUnits="userSpaceOnUse" color-interpolation-filters="sRGB">
<feFlood flood-opacity="0" result="BackgroundImageFix"/>
<feColorMatrix in="SourceAlpha" type="matrix" values="0 0 0 0 0 0 0 0 0 0 0 0 0 0 0 0 0 0 127 0"/>
<feOffset dx="5" dy="5"/>
<feGaussianBlur stdDeviation="7.5"/>
<feColorMatrix type="matrix" values="0 0 0 0 0 0 0 0 0 0 0 0 0 0 0 0 0 0 0.15 0"/>
<feBlend mode="normal" in2="BackgroundImageFix" result="effect1_dropShadow"/>
<feBlend mode="normal" in="SourceGraphic" in2="effect1_dropShadow" result="shape"/>
</filter>
<linearGradient id="paint0_linear" x1="141.273" y1="66.8651" x2="139.029" y2="197.076" gradientUnits="userSpaceOnUse">
<stop stop-color="white" stop-opacity="0"/>
<stop offset="1" stop-color="#64B5F6" stop-opacity="0.6"/>
</linearGradient>
<linearGradient id="paint1_linear" x1="153.41" y1="126.165" x2="171.56" y2="158.279" gradientUnits="userSpaceOnUse">
<stop stop-color="#E57373"/>
<stop offset="1" stop-color="#AD1457"/>
</linearGradient>
<linearGradient id="paint2_linear" x1="28160.2" y1="39784.5" x2="26248.2" y2="49285.9" gradientUnits="userSpaceOnUse">
<stop stop-color="#E57373"/>
<stop offset="1" stop-color="#AD1457"/>
</linearGradient>
<linearGradient id="paint3_linear" x1="221.122" y1="137.94" x2="171.589" y2="166.833" gradientUnits="userSpaceOnUse">
<stop stop-color="#FFF8E1"/>
<stop offset="1" stop-color="#FFCC80"/>
</linearGradient>
<linearGradient id="paint4_linear" x1="21671.4" y1="22309.6" x2="19000.7" y2="20496.4" gradientUnits="userSpaceOnUse">
<stop stop-color="#FFF8E1"/>
<stop offset="1" stop-color="#FFCC80"/>
</linearGradient>
<linearGradient id="paint5_linear" x1="157.704" y1="103.439" x2="130.662" y2="114.652" gradientUnits="userSpaceOnUse">
<stop stop-color="#FFF8E1"/>
<stop offset="1" stop-color="#FFCC80"/>
</linearGradient>
<linearGradient id="paint6_linear" x1="151.486" y1="74.1463" x2="120.053" y2="116.911" gradientUnits="userSpaceOnUse">
<stop stop-color="#FFB74D"/>
<stop offset="1" stop-color="#F4511E"/>
</linearGradient>
<clipPath id="clip0">
<rect width="284" height="197" fill="white"/>
</clipPath>
</defs>
</svg>
